<?xml version="1.0" standalone="no"?>
<!DOCTYPE svg PUBLIC "-//W3C//DTD SVG 1.1//EN"
"http://www.w3.org/Graphics/SVG/1.1/DTD/svg11.dtd">

<svg width="392" height="120" view_box="0 0 392 120"
xmlns="http://www.w3.org/2000/svg"
xmlns:link="http://www.w3.org/1999/xlink">\n\n<desc>Généré par Mocodo 2.3.7 le Fri, 23 Jul 2021 07:09:53</desc>

<rect id="frame" x="0" y="0" width="392" height="120" fill="#f7f7f7" stroke="none" stroke-width="0"/>

<!-- Association IS ASSOCIATED WITH -->
<line x1="50" y1="60" x2="198" y2="60" stroke="#de77ae" stroke-width="2"/>
<text x="96" y="77.0" fill="#4d9221" font-family="Verdana" font-size="12">1,1</text>
<line x1="344" y1="60" x2="198" y2="60" stroke="#de77ae" stroke-width="2"/>
<text x="278" y="77.0" fill="#4d9221" font-family="Verdana" font-size="12">0,N</text>
<g id="association-IS ASSOCIATED WITH">
	<path d="M 259 35 a 14 14 90 0 1 14 14 V 60 h -150 V 49 a 14 14 90 0 1 14 -14" fill="#f1b6da" stroke="#f1b6da" stroke-width="0"/>
	<path d="M 273 60.0 v 11 a 14 14 90 0 1 -14 14 H 137 a 14 14 90 0 1 -14 -14 V 60.0 H 150" fill="#fde0ef" stroke="#fde0ef" stroke-width="0"/>
	<rect x="123" y="35" width="150" height="50" fill="none" rx="14" stroke="#de77ae" stroke-width="2"/>
	<line x1="123" y1="60" x2="273" y2="60" stroke="#de77ae" stroke-width="1"/>
	<text x="130" y="52.7" fill="#000000" font-family="Verdana" font-size="12">IS ASSOCIATED WITH</text>
</g>

<!-- Entity CATEGORY -->
<g id="entity-CATEGORY">
	<g id="frame-CATEGORY">
		<rect x="305" y="26" width="78" height="25" fill="#b8e186" stroke="#b8e186" stroke-width="0"/>
		<rect x="305" y="51.0" width="78" height="43" fill="#e6f5d0" stroke="#e6f5d0" stroke-width="0"/>
		<rect x="305" y="26" width="78" height="68" fill="none" stroke="#7fbc41" stroke-width="2"/>
		<line x1="305" y1="51" x2="383" y2="51" stroke="#7fbc41" stroke-width="1"/>
	</g>
	<text x="310" y="43.7" fill="#000000" font-family="Verdana" font-size="12">CATEGORY</text>
	<text x="310" y="68.8" fill="#000000" font-family="Verdana" font-size="12">name</text>
	<line x1="310" y1="71" x2="345" y2="71" stroke="#000000" stroke-width="1"/>
	<text x="310" y="85.8" fill="#000000" font-family="Verdana" font-size="12">status</text>
</g>

<!-- Entity TASK -->
<g id="entity-TASK">
	<g id="frame-TASK">
		<rect x="9" y="9" width="82" height="25" fill="#b8e186" stroke="#b8e186" stroke-width="0"/>
		<rect x="9" y="34.0" width="82" height="77" fill="#e6f5d0" stroke="#e6f5d0" stroke-width="0"/>
		<rect x="9" y="9" width="82" height="102" fill="none" stroke="#7fbc41" stroke-width="2"/>
		<line x1="9" y1="34" x2="91" y2="34" stroke="#7fbc41" stroke-width="1"/>
	</g>
	<text x="33" y="26.7" fill="#000000" font-family="Verdana" font-size="12">TASK</text>
	<text x="14" y="51.7" fill="#000000" font-family="Verdana" font-size="12">title</text>
	<line x1="14" y1="54" x2="38" y2="54" stroke="#000000" stroke-width="1"/>
	<text x="14" y="68.8" fill="#000000" font-family="Verdana" font-size="12">completion</text>
	<text x="14" y="85.8" fill="#000000" font-family="Verdana" font-size="12">category_id</text>
	<text x="14" y="102.8" fill="#000000" font-family="Verdana" font-size="12">status</text>
</g>
</svg>